<svg xmlns="http://www.w3.org/2000/svg" width="95" height="14" fill="none"><g fill="#151515" clip-path="url(#a)"><path d="M14.884 5.347 9.6 5 7.61 0 5.62 5l-5.28.347 4.05 3.438L3.06 14l4.549-2.875L12.158 14 10.83 8.785zm19.794 0L29.394 5l-1.99-5-1.99 5-5.28.347 4.05 3.438L22.855 14l4.549-2.875L31.953 14l-1.33-5.215zm19.793 0L49.187 5l-1.99-5-1.99 5-5.28.347 4.05 3.438L42.647 14l4.55-2.875L51.745 14l-1.328-5.215zm19.794 0L68.981 5l-1.99-5L65 5l-5.28.347 4.05 3.438L62.44 14l4.55-2.875L71.539 14l-1.328-5.215zm19.795 0L88.774 5l-1.99-5-1.99 5-5.28.347 4.05 3.438L82.234 14l4.55-2.875L91.332 14l-1.328-5.215 4.054-3.438Z"/></g><defs><clipPath id="a"><path fill="#fff" d="M0 0h95v14H0z"/></clipPath></defs></svg>